<svg width="100" height="100" viewBox="0 0 100 100" fill="none" xmlns="http://www.w3.org/2000/svg">
<rect width="100" height="100" rx="24" fill="#3BB2FF"/>
<path d="M69.989 57.1961C69.989 56.6577 69.9021 56.1745 69.7285 55.7465C69.5694 55.3048 69.2655 54.9044 68.817 54.5455C68.3684 54.1727 67.739 53.8069 66.9288 53.4479C66.1185 53.089 65.0695 52.7162 63.7818 52.3297C62.3493 51.8879 60.9892 51.3909 59.7015 50.8387C58.4282 50.2865 57.2996 49.6445 56.3157 48.9129C55.3463 48.1674 54.5795 47.3045 54.0152 46.3243C53.4653 45.3442 53.1904 44.2052 53.1904 42.9075C53.1904 41.6512 53.4798 40.5123 54.0586 39.4907C54.6373 38.4552 55.4476 37.5717 56.4894 36.84C57.5311 36.0945 58.761 35.5216 60.179 35.1212C61.6114 34.7209 63.1813 34.5207 64.8886 34.5207C67.2181 34.5207 69.251 34.9211 70.9873 35.7218C72.7236 36.5225 74.0692 37.62 75.0242 39.0144C75.9936 40.4087 76.4783 42.0032 76.4783 43.7979H70.0107C70.0107 42.9144 69.8153 42.1413 69.4247 41.4786C69.0485 40.8022 68.4697 40.2707 67.6884 39.8841C66.9215 39.4976 65.9521 39.3043 64.7801 39.3043C63.6515 39.3043 62.711 39.4699 61.9587 39.8013C61.2063 40.1188 60.642 40.5537 60.2658 41.1059C59.8896 41.6443 59.7015 42.2517 59.7015 42.9282C59.7015 43.439 59.8317 43.9015 60.0922 44.3156C60.3671 44.7298 60.7722 45.1164 61.3075 45.4753C61.8429 45.8342 62.5012 46.1725 63.2826 46.49C64.0639 46.8075 64.9682 47.1181 65.9955 47.4219C67.7173 47.9189 69.2293 48.478 70.5315 49.0992C71.8482 49.7205 72.9479 50.4176 73.8305 51.1907C74.7131 51.9639 75.3787 52.8405 75.8272 53.8207C76.2757 54.8009 76.5 55.9122 76.5 57.1547C76.5 58.4662 76.2323 59.6397 75.697 60.6751C75.1616 61.7105 74.3875 62.5871 73.3747 63.305C72.3619 64.0229 71.1537 64.5682 69.7502 64.941C68.3467 65.3137 66.7768 65.5001 65.0406 65.5001C63.4779 65.5001 61.937 65.3068 60.4177 64.9202C58.8985 64.5199 57.5167 63.9193 56.2723 63.1186C55.0425 62.3179 54.0586 61.2963 53.3207 60.0538C52.5827 58.8113 52.2138 57.3411 52.2138 55.643H58.7465C58.7465 56.5818 58.8985 57.3756 59.2023 58.0244C59.5062 58.6733 59.933 59.1979 60.4828 59.5983C61.0471 59.9986 61.7127 60.2885 62.4795 60.468C63.2609 60.6475 64.1145 60.7372 65.0406 60.7372C66.1691 60.7372 67.0952 60.5853 67.8186 60.2816C68.5565 59.9779 69.0991 59.5568 69.4464 59.0184C69.8081 58.48 69.989 57.8726 69.989 57.1961Z" fill="#F6F6F6"/>
<path d="M42.7727 55.0839H49.2621C49.1319 57.1133 48.5459 58.9149 47.5041 60.4887C46.4768 62.0625 45.0371 63.2912 43.1851 64.1747C41.3475 65.0583 39.1338 65.5001 36.5438 65.5001C34.5182 65.5001 32.7023 65.1687 31.0962 64.5061C29.4902 63.8296 28.1156 62.8632 26.9726 61.6069C25.844 60.3506 24.9831 58.832 24.3898 57.0511C23.7966 55.2702 23.5 53.2754 23.5 51.0665V48.975C23.5 46.7661 23.8038 44.7712 24.4115 42.9903C25.0337 41.1956 25.9163 39.6701 27.0594 38.4138C28.2169 37.1575 29.5987 36.1911 31.2047 35.5147C32.8108 34.8382 34.605 34.5 36.5872 34.5C39.2206 34.5 41.4416 34.9556 43.2502 35.8667C45.0733 36.7779 46.484 38.0342 47.4824 39.6356C48.4952 41.237 49.1029 43.0593 49.3055 45.1026H42.7944C42.7221 43.8877 42.4689 42.8592 42.0348 42.017C41.6007 41.1611 40.9424 40.5191 40.0598 40.0912C39.1916 39.6494 38.0341 39.4285 36.5872 39.4285C35.502 39.4285 34.5543 39.6218 33.7441 40.0083C32.9338 40.3949 32.2538 40.9816 31.7039 41.7685C31.1541 42.5554 30.7417 43.5494 30.4668 44.7505C30.2064 45.9378 30.0762 47.3321 30.0762 48.9336V51.0665C30.0762 52.6265 30.1992 54.0001 30.4451 55.1874C30.6911 56.3609 31.0673 57.3549 31.5737 58.1694C32.0946 58.9701 32.7602 59.5775 33.5704 59.9917C34.3952 60.3921 35.3863 60.5922 36.5438 60.5922C37.9039 60.5922 39.0252 60.3852 39.9079 59.971C40.7905 59.5568 41.4633 58.9425 41.9263 58.128C42.4038 57.3134 42.6859 56.2987 42.7727 55.0839Z" fill="#F6F6F6"/>
</svg>
